<svg width="31" height="38" viewBox="0 0 31 38" fill="none" xmlns="http://www.w3.org/2000/svg">
<path d="M20.7806 5.98085C21.4894 5.16393 22.0298 4.21504 22.3709 3.18867C22.7119 2.1623 22.8469 1.07867 22.7679 0C20.5919 0.175651 18.572 1.19909 17.1433 2.84981C16.4592 3.64096 15.9407 4.56135 15.6187 5.55646C15.2966 6.55158 15.1775 7.6012 15.2684 8.64318C16.3299 8.65202 17.3791 8.41649 18.335 7.95483C19.2908 7.49317 20.1276 6.81775 20.7806 5.98085ZM25.5053 19.9299C25.5178 18.4933 25.8963 17.0835 26.6048 15.8337C27.3134 14.5839 28.3287 13.5352 29.555 12.7866C28.7811 11.6715 27.758 10.7521 26.5669 10.1012C25.3758 9.45034 24.0494 9.08593 22.6929 9.0369C19.7681 8.73692 17.0683 10.743 15.5122 10.743C13.956 10.743 11.7624 9.0744 9.32509 9.11189C7.73168 9.16438 6.17908 9.62895 4.81872 10.4603C3.45836 11.2916 2.33669 12.4613 1.5631 13.8553C-1.73668 19.5924 0.719409 28.1231 4.01919 32.7541C5.51909 35.0227 7.39397 37.5913 9.8688 37.4975C12.3436 37.4038 13.1498 35.9601 16.0184 35.9601C18.8869 35.9601 19.7681 37.4975 22.2055 37.4413C24.6428 37.385 26.3677 35.1164 27.9426 32.8478C29.0582 31.2008 29.9297 29.401 30.5299 27.5044C29.044 26.8707 27.7763 25.8157 26.8834 24.4696C25.9904 23.1235 25.5113 21.5453 25.5053 19.9299Z" fill="#1F1F1F"/>
</svg>
